<?xml version="1.0" standalone="no"?>
<!DOCTYPE svg PUBLIC "-//W3C//DTD SVG 20010904//EN"
 "http://www.w3.org/TR/2001/REC-SVG-20010904/DTD/svg10.dtd">
<svg version="1.0" xmlns="http://www.w3.org/2000/svg"
 width="700.000000pt" height="700.000000pt" viewBox="0 0 700.000000 700.000000"
 preserveAspectRatio="xMidYMid meet">
<metadata>
Created by potrace 1.14, written by Peter Selinger 2001-2017
</metadata>
<g transform="translate(0.000000,700.000000) scale(0.100000,-0.100000)"
fill="#000000" stroke="none">
<path d="M3278 6995 c-1 -1 -42 -5 -89 -9 -47 -4 -95 -8 -105 -10 -10 -2 -48
-7 -84 -12 -36 -4 -67 -8 -70 -9 -3 -1 -25 -5 -50 -9 -25 -4 -101 -21 -170
-38 -69 -16 -135 -31 -147 -34 -13 -2 -78 -23 -145 -45 -602 -201 -1114 -536
-1533 -1003 -408 -455 -700 -1042 -816 -1635 -11 -58 -22 -116 -24 -130 -2
-14 -6 -42 -10 -62 -6 -40 -10 -74 -22 -199 -15 -162 -8 -591 12 -711 2 -13 6
-46 9 -74 38 -329 168 -746 339 -1085 61 -122 169 -312 187 -330 3 -3 26 -36
51 -75 202 -308 532 -643 859 -874 63 -45 120 -86 127 -91 7 -6 15 -10 17 -10
3 0 37 -20 75 -44 38 -25 133 -78 212 -118 351 -180 735 -303 1108 -354 25 -3
57 -8 71 -10 163 -25 682 -25 842 1 13 2 46 7 73 10 74 11 87 13 120 19 17 4
46 9 65 12 51 8 213 48 300 74 626 182 1201 546 1630 1029 36 41 70 79 76 85
29 30 185 242 240 326 120 184 241 412 315 597 66 163 147 422 175 558 16 75
54 300 60 350 4 33 9 76 11 95 8 71 10 517 3 595 -17 172 -22 220 -25 225 -2
3 -6 30 -10 60 -3 30 -10 71 -15 90 -5 19 -12 51 -15 70 -12 71 -65 268 -100
375 -349 1050 -1163 1869 -2210 2223 -167 57 -394 113 -555 137 -25 4 -54 9
-65 11 -10 2 -49 6 -85 10 -36 3 -78 8 -95 11 -33 5 -531 13 -537 8z m421
-439 c53 -3 132 -11 176 -17 75 -10 97 -13 170 -25 491 -81 1015 -327 1419
-665 538 -450 917 -1092 1041 -1764 10 -49 18 -97 20 -105 30 -160 44 -481 30
-690 -6 -98 -30 -293 -40 -330 -2 -8 -7 -31 -10 -50 -3 -19 -11 -55 -16 -80
-6 -25 -12 -52 -14 -60 -9 -43 -69 -237 -99 -320 -307 -854 -1007 -1543 -1872
-1843 -95 -33 -291 -89 -359 -102 -101 -20 -141 -26 -242 -39 -279 -37 -529
-37 -813 0 -771 101 -1482 503 -1979 1119 -173 215 -297 423 -436 730 -55 120
-148 422 -170 550 -3 17 -8 37 -10 45 -11 37 -31 174 -40 265 -3 33 -8 80 -10
105 -6 54 -6 367 -1 430 6 67 17 172 21 200 2 14 6 43 10 65 140 958 779 1829
1660 2264 195 97 437 189 598 227 9 2 25 6 35 8 49 12 231 48 257 51 17 3 63
9 104 15 41 6 131 13 200 16 69 4 127 7 128 8 3 2 146 -3 242 -8z"/>
</g>
</svg>
